<svg width="16" height="16" viewBox="0 0 16 16" fill="none" xmlns="http://www.w3.org/2000/svg">
<path d="M8 5.33333C6.52724 5.33333 5.33333 6.52724 5.33333 8C5.33333 9.47276 6.52724 10.6667 8 10.6667C9.47276 10.6667 10.6667 9.47276 10.6667 8C10.6667 6.52724 9.47276 5.33333 8 5.33333Z" fill="#333333"/>
<path fill-rule="evenodd" clip-rule="evenodd" d="M4.8 0C2.14903 0 0 2.14903 0 4.8V11.2C0 13.851 2.14903 16 4.8 16H11.2C13.851 16 16 13.851 16 11.2V4.8C16 2.14903 13.851 0 11.2 0H4.8ZM4.26667 8C4.26667 5.93814 5.93814 4.26667 8 4.26667C10.0619 4.26667 11.7333 5.93814 11.7333 8C11.7333 10.0619 10.0619 11.7333 8 11.7333C5.93814 11.7333 4.26667 10.0619 4.26667 8ZM11.7333 4.26667H12.8V3.2H11.7333V4.26667Z" fill="#333333"/>
</svg>
