<svg width="18" height="24" viewBox="0 0 18 24" fill="none" xmlns="http://www.w3.org/2000/svg">
<ellipse opacity="0.5" cx="9" cy="22" rx="9" ry="2" fill="#56CCF2"/>
<g clip-path="url(#clip0_1249_521)">
<path d="M14.329 3.08241C13.2366 1.19719 11.2963 0.0454395 9.13855 0.00142383C9.04644 -0.000474609 8.95373 -0.000474609 8.86159 0.00142383C6.70391 0.0454395 4.76357 1.19719 3.67112 3.08241C2.55449 5.0094 2.52394 7.32408 3.58938 9.27424L8.05293 17.4441C8.05493 17.4477 8.05693 17.4513 8.05901 17.4549C8.25539 17.7963 8.6072 18 9.00014 18C9.39305 18 9.74485 17.7962 9.9412 17.4549C9.94328 17.4513 9.94528 17.4477 9.94728 17.4441L14.4108 9.27424C15.4762 7.32408 15.4457 5.0094 14.329 3.08241ZM9.00007 8.15627C7.60433 8.15627 6.46882 7.02076 6.46882 5.62502C6.46882 4.22928 7.60433 3.09377 9.00007 3.09377C10.3958 3.09377 11.5313 4.22928 11.5313 5.62502C11.5313 7.02076 10.3958 8.15627 9.00007 8.15627Z" fill="#56CCF2"/>
</g>
<defs>
<clipPath id="clip0_1249_521">
<rect width="18" height="18" fill="white"/>
</clipPath>
</defs>
</svg>
