<svg width="16" height="14" viewBox="0 0 16 14" fill="none" xmlns="http://www.w3.org/2000/svg">
<path d="M15.9758 0.564478C15.9616 0.350536 15.8207 0.165888 15.6181 0.0957603C15.4155 0.0256327 15.1906 0.0836615 15.0472 0.243063C14.6785 0.652831 14.2126 0.930497 13.7397 1.0571C13.0821 0.443103 12.1984 0.0664272 11.2273 0.0664272C9.14326 0.0664272 7.45518 1.7583 7.45518 3.8436V4.31273C4.26452 4.06615 2.55827 1.64239 2.09787 0.412748C2.02345 0.21399 1.83826 0.0782713 1.62632 0.0671588C1.41438 0.0560464 1.21602 0.171655 1.12122 0.361541C0.00471268 2.59801 -0.167315 4.76717 0.644158 6.61428C1.35501 8.23234 2.78459 9.52125 4.81076 10.3752C3.88991 11.0277 2.34004 11.7998 0.533375 11.7998C0.298423 11.7998 0.0911464 11.9535 0.0229808 12.1784C-0.0451848 12.4032 0.0418192 12.6462 0.237218 12.7766C1.9696 13.9333 3.78522 13.9332 5.47396 13.9331L5.52565 13.9331C10.7103 13.9331 14.912 9.72379 14.912 4.53309V4.02291C15.2996 3.62891 15.6014 3.22558 15.7864 2.70417C15.9928 2.12236 16.0344 1.44774 15.9758 0.564478Z" fill="#333333"/>
</svg>
